# xmcd
#
# Track frame offsets:
#	150
#	16406
#	43524
#	72182
#	101325
#
# Disc length: 4770 seconds
#
# Revision: 1
# Processed by: cddbd v1.5.2PL0 Copyright (c) Steve Scherf et al.
# Submitted via: audiograbber 1.83.01
#
DISCID=3512a005
DTITLE=DJ German and Freinds - Maxi
DYEAR=1900
DGENRE=
TTITLE0=Ich war noch niemals in New York ( short version )
TTITLE1=Ich war noch niemals in New York ( club version )
TTITLE2=Are you ready ( club version )
TTITLE3=Are you ready ( short version )
TTITLE4=video
EXTD=
EXTT0=
EXTT1=
EXTT2=
EXTT3=
EXTT4=
PLAYORDER=
